<svg width="53" height="21" viewBox="0 0 53 21" fill="none" xmlns="http://www.w3.org/2000/svg">
<rect x="0.821777" width="52" height="21" rx="3" fill="#D9534F" fill-opacity="0.24"/>
<g clip-path="url(#clip0_302_3692)">
<path d="M7.82178 15.5L3.91553 9.64062H6.02002L6.02002 5.5L9.62354 5.5V9.64063H11.728L7.82178 15.5Z" fill="#D9534F"/>
</g>
<path d="M19.6938 15V7.2L20.3778 7.908H17.9178V6.6H21.2538V15H19.6938ZM23.8561 15.084C23.5841 15.084 23.3521 14.992 23.1601 14.808C22.9681 14.616 22.8721 14.376 22.8721 14.088C22.8721 13.784 22.9681 13.544 23.1601 13.368C23.3521 13.184 23.5841 13.092 23.8561 13.092C24.1281 13.092 24.3601 13.184 24.5521 13.368C24.7441 13.544 24.8401 13.784 24.8401 14.088C24.8401 14.376 24.7441 14.616 24.5521 14.808C24.3601 14.992 24.1281 15.084 23.8561 15.084ZM29.3452 15.12C28.5852 15.12 27.9332 14.96 27.3892 14.64C26.8452 14.312 26.4292 13.84 26.1412 13.224C25.8532 12.608 25.7092 11.848 25.7092 10.944C25.7092 9.984 25.8812 9.172 26.2252 8.508C26.5772 7.844 27.0612 7.34 27.6772 6.996C28.3012 6.652 29.0172 6.48 29.8252 6.48C30.2492 6.48 30.6532 6.524 31.0372 6.612C31.4292 6.7 31.7612 6.836 32.0332 7.02L31.4572 8.196C31.2252 8.044 30.9732 7.94 30.7012 7.884C30.4372 7.82 30.1572 7.788 29.8612 7.788C29.0692 7.788 28.4412 8.032 27.9772 8.52C27.5132 9.008 27.2812 9.728 27.2812 10.68C27.2812 10.832 27.2852 11.012 27.2932 11.22C27.3012 11.42 27.3292 11.624 27.3772 11.832L26.8972 11.304C27.0412 10.976 27.2372 10.704 27.4852 10.488C27.7412 10.264 28.0412 10.096 28.3852 9.984C28.7372 9.872 29.1172 9.816 29.5252 9.816C30.0772 9.816 30.5692 9.924 31.0012 10.14C31.4332 10.348 31.7772 10.648 32.0332 11.04C32.2892 11.424 32.4172 11.876 32.4172 12.396C32.4172 12.948 32.2812 13.428 32.0092 13.836C31.7372 14.244 31.3692 14.56 30.9052 14.784C30.4412 15.008 29.9212 15.12 29.3452 15.12ZM29.2612 13.896C29.5812 13.896 29.8652 13.84 30.1132 13.728C30.3612 13.608 30.5532 13.44 30.6892 13.224C30.8332 13.008 30.9052 12.756 30.9052 12.468C30.9052 12.028 30.7532 11.68 30.4492 11.424C30.1452 11.168 29.7372 11.04 29.2252 11.04C28.8892 11.04 28.5932 11.104 28.3372 11.232C28.0892 11.352 27.8892 11.52 27.7372 11.736C27.5932 11.952 27.5212 12.2 27.5212 12.48C27.5212 12.736 27.5892 12.972 27.7252 13.188C27.8612 13.404 28.0572 13.576 28.3132 13.704C28.5772 13.832 28.8932 13.896 29.2612 13.896ZM34.578 15L38.046 7.224L38.454 7.92H33.69L34.434 7.164V9.348H32.982V6.6H39.51V7.644L36.246 15H34.578ZM41.6625 15L47.3985 6.6H48.5745L42.8385 15H41.6625ZM42.3585 11.124C41.9665 11.124 41.6185 11.028 41.3145 10.836C41.0105 10.644 40.7745 10.376 40.6065 10.032C40.4385 9.688 40.3545 9.284 40.3545 8.82C40.3545 8.356 40.4385 7.952 40.6065 7.608C40.7745 7.264 41.0105 6.996 41.3145 6.804C41.6185 6.612 41.9665 6.516 42.3585 6.516C42.7665 6.516 43.1185 6.612 43.4145 6.804C43.7185 6.996 43.9545 7.264 44.1225 7.608C44.2905 7.952 44.3745 8.356 44.3745 8.82C44.3745 9.284 44.2905 9.688 44.1225 10.032C43.9545 10.376 43.7185 10.644 43.4145 10.836C43.1185 11.028 42.7665 11.124 42.3585 11.124ZM42.3705 10.284C42.6905 10.284 42.9385 10.16 43.1145 9.912C43.2985 9.656 43.3905 9.292 43.3905 8.82C43.3905 8.348 43.2985 7.988 43.1145 7.74C42.9385 7.484 42.6905 7.356 42.3705 7.356C42.0505 7.356 41.7945 7.484 41.6025 7.74C41.4185 7.996 41.3265 8.356 41.3265 8.82C41.3265 9.284 41.4185 9.644 41.6025 9.9C41.7945 10.156 42.0505 10.284 42.3705 10.284ZM47.8665 15.084C47.4745 15.084 47.1265 14.988 46.8225 14.796C46.5185 14.604 46.2825 14.336 46.1145 13.992C45.9465 13.648 45.8625 13.244 45.8625 12.78C45.8625 12.316 45.9465 11.912 46.1145 11.568C46.2825 11.224 46.5185 10.956 46.8225 10.764C47.1265 10.572 47.4745 10.476 47.8665 10.476C48.2745 10.476 48.6265 10.572 48.9225 10.764C49.2265 10.956 49.4625 11.224 49.6305 11.568C49.7985 11.912 49.8825 12.316 49.8825 12.78C49.8825 13.244 49.7985 13.648 49.6305 13.992C49.4625 14.336 49.2265 14.604 48.9225 14.796C48.6265 14.988 48.2745 15.084 47.8665 15.084ZM47.8665 14.244C48.1865 14.244 48.4385 14.116 48.6225 13.86C48.8065 13.604 48.8985 13.244 48.8985 12.78C48.8985 12.316 48.8065 11.956 48.6225 11.7C48.4385 11.444 48.1865 11.316 47.8665 11.316C47.5545 11.316 47.3025 11.444 47.1105 11.7C46.9265 11.948 46.8345 12.308 46.8345 12.78C46.8345 13.252 46.9265 13.616 47.1105 13.872C47.3025 14.12 47.5545 14.244 47.8665 14.244Z" fill="#D9534F"/>
<defs>
<clipPath id="clip0_302_3692">
<rect width="10" height="10" fill="white" transform="translate(2.82178 5.5)"/>
</clipPath>
</defs>
</svg>
